<?xml version="1.0" encoding="utf-8"?>
<!-- Generator: Adobe Illustrator 17.1.0, SVG Export Plug-In . SVG Version: 6.00 Build 0)  -->
<!DOCTYPE svg PUBLIC "-//W3C//DTD SVG 1.1//EN" "http://www.w3.org/Graphics/SVG/1.1/DTD/svg11.dtd">
<svg version="1.1" id="Layer_1" xmlns="http://www.w3.org/2000/svg" xmlns:xlink="http://www.w3.org/1999/xlink" x="0px" y="0px"
	 viewBox="0 0 595.3 841.9" enable-background="new 0 0 595.3 841.9" xml:space="preserve">
<g>
	<path d="M304.6,707.8c-160,2.6-289.9-125.1-291.5-283.3C11.4,266.2,137.8,137.5,294.9,135c159.5-2.5,289.1,124.9,291,282.7
		C587.8,576.2,461.6,704.9,304.6,707.8z M476.6,421.7c0-17.3-0.1-34.7,0-52c0-7.1-2.7-12.3-8.7-16.3
		c-52.7-35-105.3-70.1-157.9-105.3c-7.3-4.9-13.9-4.8-21.2,0.1c-52.4,35.1-104.9,70.1-157.5,105c-6.3,4.2-9.1,9.6-9,17.1
		c0.1,34.2,0.1,68.3,0,102.5c0,7.3,2.8,12.6,8.9,16.7c52.7,35,105.3,70.1,157.9,105.3c7.1,4.8,13.7,4.7,20.8-0.1
		c52.6-35.2,105.2-70.3,157.9-105.3c6.2-4.1,8.9-9.4,8.8-16.7C476.5,455.7,476.7,438.7,476.6,421.7z"/>
	<path d="M165,367.4c39.8-26.6,79-52.7,118.8-79.2c0.2,2.1,0.3,3.3,0.3,4.5c0,20.7,0,41.3,0.1,62c0,3-0.8,4.8-3.4,6.5
		c-19.9,13.1-39.6,26.5-59.5,39.6c-1.3,0.9-4,1.4-5.1,0.7C199.3,390.5,182.5,379.1,165,367.4z"/>
	<path d="M434,367.4c-9.1,6.1-17.8,11.9-26.5,17.7c-8,5.4-16,10.8-24.1,16c-1.3,0.8-3.9,0.9-5.1,0.1c-20.3-13.4-40.5-26.9-60.7-40.5
		c-1.3-0.9-2.6-2.8-2.6-4.2c-0.1-22.2-0.1-44.3,0-66.5c0-0.3,0.3-0.6,0.7-1.5C355,314.8,394.2,341,434,367.4z"/>
	<path d="M283.7,554.4c-39.7-26.5-78.9-52.6-118.6-79.1c5.2-3.5,10-6.7,14.8-9.9c11.6-7.8,23.3-15.5,34.8-23.4c2.5-1.7,4.2-2,7-0.2
		c19.7,13.4,39.6,26.5,59.3,39.9c1.5,1,3.1,3.2,3.1,4.9c0.2,21.8,0.1,43.7,0.1,65.5C284.2,552.6,284,553.1,283.7,554.4z"/>
	<path d="M314.8,554.8c0-23.7,0-46,0.1-68.3c0-1.5,1.2-3.5,2.5-4.3c21-14.2,42-28.2,63.3-42.4c17.6,11.8,35.1,23.5,53.2,35.6
		C394.3,501.8,355,528,314.8,554.8z"/>
	<path d="M245.7,421.4c17.6-11.8,34.6-23.2,51.7-34.4c1-0.7,3.3-0.7,4.3,0c17.1,11.2,34.1,22.6,51.6,34.4c-3.1,2.1-5.7,3.9-8.4,5.7
		c-14,9.3-27.9,18.7-42,27.9c-1.5,0.9-4.3,1.6-5.5,0.8C280.2,444.6,263.3,433.2,245.7,421.4z"/>
	<path d="M153,446.7c0-17.3,0-33.4,0-50.7c12.9,8.6,25.2,16.8,37.9,25.3C178.2,429.9,166,438,153,446.7z"/>
	<path d="M445.9,396.1c0,17.1,0,33.3,0,50.5c-12.7-8.5-24.9-16.6-37.8-25.2C420.8,412.9,433.1,404.7,445.9,396.1z"/>
</g>
</svg>
