<?xml version="1.0" encoding="utf-8"?>
<!-- Generator: Adobe Illustrator 17.1.0, SVG Export Plug-In . SVG Version: 6.00 Build 0)  -->
<!DOCTYPE svg PUBLIC "-//W3C//DTD SVG 1.1//EN" "http://www.w3.org/Graphics/SVG/1.1/DTD/svg11.dtd">
<svg version="1.1" id="github" xmlns="http://www.w3.org/2000/svg" xmlns:xlink="http://www.w3.org/1999/xlink" x="0px" y="0px"
	 viewBox="0 0 595.3 841.9" enable-background="new 0 0 595.3 841.9" xml:space="preserve">
<g>
	<path d="M345.3,308.1c-15.1-6.4-31.1-9.6-47.7-9.6s-32.6,3.2-47.7,9.6c-14.6,6.2-27.7,15-38.9,26.3c-11.3,11.3-20.1,24.4-26.3,38.9
		c-6.4,15.1-9.6,31.1-9.6,47.7s3.2,32.6,9.6,47.7c6.2,14.6,15,27.7,26.3,38.9c11.3,11.3,24.4,20.1,38.9,26.3
		c4.2,1.8,8.4,3.3,12.7,4.6v-22.3c0-11.6,3.9-20,11.7-25.3c-4.9-0.5-9.5-1.1-13.6-2c-4.1-0.9-8.5-2.1-13.1-3.7
		c-4.6-1.6-8.7-3.5-12.4-5.8c-3.7-2.2-7.2-5.1-10.5-8.7c-3.4-3.6-6.2-7.6-8.5-12.1c-2.3-4.5-4.1-9.9-5.4-16.2
		c-1.3-6.3-2-13.3-2-20.9c0-14.7,4.8-27.3,14.4-37.6c-4.4-11.3-3.9-23.7,1.4-37.2c0.3-0.1,0.8-0.2,1.4-0.3c0.7-0.1,2.2,0,4.5,0.1
		c2.3,0.2,4.8,0.7,7.5,1.5c2.7,0.8,6.3,2.3,10.8,4.6c4.5,2.2,9.3,5.1,14.3,8.5c11.1-3.1,22.8-4.7,35-4.7c12.2,0,23.9,1.6,35.2,4.7
		c8-5.4,15.2-9.3,21.6-11.7c6.4-2.4,10.8-3.4,13.3-3.1l3.6,0.4c5.3,13.4,5.8,25.8,1.4,37.2c9.6,10.4,14.4,22.9,14.4,37.6
		c0,7.6-0.7,14.6-2,20.9c-1.3,6.3-3.1,11.7-5.4,16.2c-2.3,4.5-5.1,8.5-8.5,12.1c-3.4,3.6-6.9,6.5-10.5,8.7
		c-3.7,2.2-7.8,4.2-12.4,5.8c-4.6,1.6-9,2.9-13.1,3.7c-4.1,0.9-8.7,1.5-13.6,2c7.9,5.4,11.8,13.9,11.8,25.3v21.9
		c3.8-1.2,7.6-2.6,11.3-4.1c14.6-6.2,27.7-15,38.9-26.3c11.3-11.3,20.1-24.4,26.3-38.9c6.4-15.1,9.6-31.1,9.6-47.7
		s-3.2-32.6-9.6-47.7c-6.2-14.6-15-27.7-26.3-38.9C373,323.1,359.9,314.2,345.3,308.1z"/>
	<path d="M297.6,135.2c-157.8,0-285.7,127.9-285.7,285.7s127.9,285.7,285.7,285.7s285.7-127.9,285.7-285.7S455.4,135.2,297.6,135.2z
		 M297.6,566.8c-80.5,0-145.8-65.3-145.8-145.8s65.3-145.8,145.8-145.8s145.8,65.3,145.8,145.8S378.2,566.8,297.6,566.8z"/>
</g>
</svg>
